<?xml version="1.0" standalone="no"?>
<!DOCTYPE svg PUBLIC "-//W3C//DTD SVG 20010904//EN"
 "http://www.w3.org/TR/2001/REC-SVG-20010904/DTD/svg10.dtd">
<svg version="1.0" xmlns="http://www.w3.org/2000/svg"
 width="500.000000pt" height="500.000000pt" viewBox="0 0 500.000000 500.000000"
 preserveAspectRatio="xMidYMid meet">

<g transform="translate(0.000000,500.000000) scale(0.100000,-0.100000)"
fill="#000000" stroke="none">
<path d="M0 2500 l0 -2500 2500 0 2500 0 0 2500 0 2500 -2500 0 -2500 0 0
-2500z m1471 208 c1 -90 4 -176 8 -193 l6 -30 105 0 105 0 5 30 c5 27 9 30 47
33 39 3 42 1 48 -28 4 -17 4 -53 0 -80 l-7 -50 -198 0 -198 0 -4 30 c-4 28 -4
275 0 398 l2 52 40 0 40 0 1 -162z m721 3 c37 -1 48 -5 53 -21 11 -33 -4 -59
-38 -68 -23 -6 -33 -15 -35 -33 -5 -33 -20 -49 -48 -49 -19 0 -24 -5 -24 -24
0 -29 16 -36 80 -36 55 0 77 -22 66 -66 l-6 -24 -195 0 c-144 0 -196 3 -202
13 -4 6 -7 57 -6 111 1 107 10 126 59 126 18 0 23 6 26 33 3 31 4 32 58 37 51
5 94 5 212 1z m461 0 l47 -1 0 -40 c0 -36 -3 -40 -32 -48 -25 -6 -34 -15 -40
-40 -7 -24 -16 -33 -40 -40 -35 -9 -42 -20 -28 -42 6 -10 32 -17 72 -20 l63
-5 3 -43 3 -42 -198 2 -198 3 -3 37 c-4 42 3 46 92 50 46 3 49 5 60 38 9 28
17 36 39 38 32 4 45 26 27 47 -9 11 -34 15 -94 15 -116 0 -126 4 -126 51 l0
38 93 3 c85 3 138 3 260 -1z m499 -7 c12 -8 9 -59 -4 -72 -7 -7 -22 -12 -34
-12 -22 0 -34 -17 -34 -50 0 -19 -19 -30 -51 -30 -22 0 -26 -29 -7 -48 7 -7
35 -12 63 -12 65 0 77 -9 73 -51 l-3 -34 -200 0 -200 0 -3 110 c-3 119 4 135
54 135 18 0 23 6 26 33 3 31 5 32 58 38 60 6 249 1 262 -7z m382 -10 c3 -9 6
-24 6 -34 0 -14 10 -21 34 -25 44 -9 46 -14 38 -198 l-2 -48 -37 3 -38 3 -3
105 c-1 58 -6 108 -11 113 -7 7 -84 10 -183 8 l-37 -1 -3 -112 -3 -113 -40 0
-40 0 -3 110 c-3 119 4 135 55 135 19 0 23 5 23 28 0 16 3 32 7 35 3 4 57 7
119 7 93 0 113 -3 118 -16z m-1511 -484 c-14 -6 -23 -18 -23 -30 0 -12 10 -25
23 -30 22 -10 22 -10 -3 -7 -43 4 -41 78 2 76 l23 0 -22 -9z m84 -30 c-1 -36
-3 -38 -18 -24 -16 14 -18 14 -22 -3 -3 -10 -5 1 -6 25 -1 38 1 42 23 42 23 0
25 -4 23 -40z m53 28 c-21 -9 -22 -12 -7 -15 21 -5 23 -23 2 -23 -23 0 -18
-18 8 -23 19 -4 18 -4 -5 -6 -26 -1 -28 2 -28 39 0 37 2 40 28 39 l27 0 -25
-11z m80 -14 c6 -14 10 -32 10 -41 0 -13 -3 -13 -15 -3 -12 10 -18 10 -30 0
-18 -15 -19 -4 -4 39 13 38 26 40 39 5z m73 19 c-7 -2 -13 -20 -13 -39 0 -21
-4 -33 -10 -29 -5 3 -10 19 -10 35 0 15 -6 31 -12 33 -7 3 3 5 22 5 19 0 29
-2 23 -5z m62 -33 c0 -29 -4 -40 -15 -40 -11 0 -15 11 -15 40 0 29 4 40 15 40
11 0 15 -11 15 -40z m47 5 c4 -17 6 -16 17 9 6 16 14 26 17 23 8 -8 -15 -77
-26 -77 -8 0 -30 54 -30 73 0 17 17 -5 22 -28z m82 20 c-17 -13 -17 -14 -1
-15 21 0 23 -20 2 -20 -23 0 -18 -18 8 -23 19 -4 18 -4 -5 -6 -26 -1 -28 2
-28 39 0 34 3 40 22 40 21 0 21 0 2 -15z m144 8 c-23 -6 -23 -15 2 -31 27 -16
15 -42 -19 -41 -23 2 -24 2 -3 6 28 6 28 17 0 35 -25 17 -17 39 15 37 17 -1
18 -2 5 -6z m112 -29 c0 -46 23 -41 31 7 6 33 6 33 8 -9 1 -39 -1 -43 -21 -40
-15 2 -24 13 -30 36 -11 42 -31 37 -39 -9 l-6 -34 -2 37 c0 20 -7 39 -13 41
-7 3 6 6 30 6 42 1 42 1 42 -35z m110 16 c14 -26 -3 -60 -30 -60 -17 0 -20 7
-20 40 0 33 3 40 20 40 10 0 24 -9 30 -20z m62 8 c-16 -16 -15 -55 1 -61 6 -3
0 -6 -16 -6 -25 -1 -26 1 -15 19 10 16 10 24 0 40 -11 18 -10 20 15 20 21 0
24 -3 15 -12z m73 -28 c0 -28 -4 -36 -22 -38 -24 -4 -38 25 -28 59 5 14 14 19
28 17 18 -2 22 -10 22 -38z m-545 -300 l0 -40 -40 0 -40 0 0 40 0 40 40 0 40
0 0 -40z m43 -86 c35 -6 37 -8 37 -45 0 -35 -3 -39 -32 -47 -33 -8 -33 -8 -33
-73 0 -63 0 -64 30 -69 27 -5 30 -9 33 -48 l3 -43 -118 3 -118 3 -3 37 c-3 35
-1 38 30 46 l33 8 0 64 c0 64 0 64 -32 72 -30 8 -33 12 -33 48 0 35 3 39 28
43 45 7 135 7 175 1z m417 -38 c0 -32 2 -35 40 -41 l41 -7 -3 -76 -3 -77 -35
-5 c-31 -4 -36 -9 -40 -40 l-5 -35 -114 -3 c-121 -3 -131 0 -131 44 0 22 -17
34 -50 34 -23 0 -30 19 -30 85 0 60 16 85 56 85 17 0 24 6 24 19 0 49 5 51
131 51 l119 0 0 -34z m-682 -52 c8 -2 12 -16 10 -36 l-3 -33 -120 0 -120 0 0
35 0 35 55 5 c54 6 152 2 178 -6z"/>
<path d="M1937 2613 c-10 -10 -8 -68 3 -97 13 -36 37 -32 54 9 12 27 21 35 41
35 30 0 43 24 25 45 -13 15 -110 22 -123 8z"/>
<path d="M2852 2558 c2 -51 6 -63 21 -66 12 -3 22 7 32 32 13 30 20 36 45 36
25 0 30 4 30 24 0 29 -16 36 -81 36 l-50 0 3 -62z"/>
<path d="M2075 2200 c-3 -5 1 -10 10 -10 9 0 13 5 10 10 -3 6 -8 10 -10 10 -2
0 -7 -4 -10 -10z"/>
<path d="M2837 2204 c-4 -4 -7 -18 -7 -31 0 -28 23 -27 28 1 4 20 -11 40 -21
30z"/>
<path d="M2970 2180 c0 -21 4 -30 13 -27 6 2 12 14 12 27 0 13 -6 25 -12 28
-9 2 -13 -7 -13 -28z"/>
<path d="M2688 1665 c-2 -19 -2 -51 0 -70 l4 -35 109 0 109 0 0 70 0 70 -109
0 -109 0 -4 -35z"/>
</g>
</svg>
